<?xml version="1.0" encoding="utf-8"?>
<!-- Generator: Adobe Illustrator 18.1.1, SVG Export Plug-In . SVG Version: 6.00 Build 0)  -->
<!DOCTYPE svg PUBLIC "-//W3C//DTD SVG 1.1//EN" "http://www.w3.org/Graphics/SVG/1.1/DTD/svg11.dtd">
<svg version="1.1" id="Layer_1" xmlns="http://www.w3.org/2000/svg" xmlns:xlink="http://www.w3.org/1999/xlink" x="0px" y="0px"
	 viewBox="0 92.8 612 611.3" enable-background="new 0 92.8 612 611.3" xml:space="preserve">
<path fill="#806E52" d="M572.1,492.5l-173,173c-51.4,51.4-135.4,51.4-186.9,0l-174.3-173c-51.4-51.4-51.4-135.4,0-186.9l174.3-174.3
	c51.4-51.4,135.4-51.4,186.9,0l173.1,174.3C624.8,357,624.8,441.1,572.1,492.5z"/>
<g>
	<path fill="#FFFFFF" d="M333.1,329.5c11.1,2.3,22.2-5.6,24.4-17.8c2.3-11.1-5.6-22.2-17.8-24.4c-11.1-2.3-22.2,5.6-24.4,17.8
		C314.1,316.3,322,327.4,333.1,329.5z"/>
	<path fill="#FFFFFF" d="M367.4,387.2c-5.6-1.1-12.2-1.1-17.8,0l-6.7-16.7h8.8c4.4,0,8.8-4.4,8.8-8.8s-3.3-8.8-8.8-8.8l0,0H323
		c0,0-10-27.8-11.1-29.9c-4.4-7.7-13.3-10-21.1-5.6l-49.9,27.8c-7.7,4.4-10,13.3-5.6,21.1c1.1,2.3,3.3,4.4,5.6,5.6
		c2.3,2.3,4.4,3.3,7.7,3.3l31.1,14.4l-1.1,36.6c0,4.4,3.3,8.8,8.8,8.8l0,0c4.4,0,8.8-3.3,8.8-8.8l1.1-43.3c0-3.3-2.3-6.7-4.4-7.7
		L269.7,364h-1.1L304,344l1.1,2.3l5.6,15.5c1.1,3.3,4.4,5.6,7.7,5.6l0,0h13.3v1.1l7.7,18.8c-12.2,5.6-21.1,16.7-24.4,29.9
		c-5.6,23.2,10,47.7,33.3,53.3c24.4,5.6,47.7-10,53.3-33.3C406.2,416.1,390.8,391.6,367.4,387.2z M389.6,437
		c-3.3,17.8-21.1,28.8-38.8,24.4c-17.8-3.3-28.8-21.1-24.4-38.8c2.3-10,8.8-17.8,16.7-21.1l11.1,27.8c1.1,2.3,2.3,3.3,4.4,3.3
		c1.1,0,2.3,0,3.3,0c3.3-1.1,4.4-4.4,3.3-7.7l-10-26.6c3.3,0,6.7,0,10,1.1C381.8,402.7,392.9,419.4,389.6,437z"/>
	<path fill="#FFFFFF" d="M224.4,386.1c-24.4,0-44.3,19.9-44.3,44.3s19.9,44.3,44.3,44.3c24.4,0,44.3-19.9,44.3-44.3
		S248.8,386.1,224.4,386.1z M224.4,462.5c-17.8,0-32.2-14.4-32.2-32.2c0-17.8,14.4-32.2,32.2-32.2s32.2,14.4,32.2,32.2
		C256.6,448.2,242.1,462.5,224.4,462.5z"/>
</g>
<g>
	<circle fill="#FFFFFF" cx="524.6" cy="348" r="14.2"/>
	<path fill="#FFFFFF" d="M551.1,379c-1.3-3.3-5.2-4.6-7.7-3.3L520.1,386l-3.3-20c0-1.3-0.7-2.6-2-3.3c-0.7-1.3-1.3-2.6-2.6-3.3
		l-25.2-12.3c-1.3-0.7-3.3-0.7-4.6,0c-1.3,0.7-2.6,2-3.3,3.3l-8.4,23.9c-1.3,3.3,0.7,6.4,3.9,7.7c0.7,0,1.3,0.7,2,0.7
		c2.6,0,4.6-1.3,5.8-3.9l6.4-17.4l9,4.6l-19.3,25.2c-0.7,0-0.7,0.7-0.7,0.7l-45.2,52.3c-2,2.6-2,6.4,0.7,8.4
		c1.3,1.3,2.6,1.3,3.9,1.3c2,0,3.3-0.7,4.6-2l38.7-44.5l18,13.6l-27.7,12.9c-3.3,1.3-4.6,5.2-2.6,7.7c1.3,2,3.3,3.3,5.2,3.3
		c0.7,0,2,0,2.6-0.7l36.8-16.7c2-0.7,3.3-2.6,3.3-4.6c0-2-0.7-3.9-2.6-5.2l-18-12.9l14.9-18.7l2,11c0,2,1.3,3.3,3.3,4.6
		c0.7,0.7,2,0.7,2.6,0.7c0.7,0,2,0,2.6-0.7l30.3-13.6C551.1,385.4,552.4,382.2,551.1,379z"/>
</g>
<g>
	<circle fill="#FFFFFF" cx="121.8" cy="345.4" r="10.3"/>
	<path fill="#FFFFFF" d="M149.5,388.6l-14.5-6.4l-9.3-19.1c-0.2-0.7-0.6-1.3-0.9-1.9l-0.2-0.5c-0.6-1.1-1.4-2-2.4-2.4
		c-1.1-0.8-2.4-1.5-3.8-1.8c-0.8-0.2-1.7-0.2-2.5-0.2c-0.7,0-1.5,0.1-2.3,0.3c-1.3,0.3-2.4,1-3.5,1.8L88.3,370
		c-0.4,0.2-0.7,0.5-1.1,0.5c-1.1,0.6-1.9,1.6-2.1,2.8l-3.4,18c-0.4,2,1.1,4.6,3.1,4.9c2.3,0.5,4.4-1.1,4.9-3.3l3.2-16.9l11.7-6.2
		L99.5,393c-0.2,0.7-0.2,1.4-0.2,2l-4.1,24.5c-0.1,0.1-0.2,0.2-0.2,0.5l-15.4,23.7c-2,2.9-1.5,6.7,1.1,8.1c2.4,1.5,5.7,0.5,7.8-2.6
		l15.4-23.7c0.5-0.7,0.8-1.5,1.1-2.4c0.2-0.4,0.3-0.8,0.4-1.3l2.9-18c0.3,0,0.5,0,1.1,0.5c1.2,0.5,2,0.5,3.1,1.1l16,19.1l5,23.6
		c0.7,3.1,3.6,5.1,6.2,4.1c2.8-0.6,4.5-3.5,3.9-6.5l-5-24c-0.2-1-0.7-1.8-1.2-2.4c-0.2-0.3-0.4-0.7-0.7-1l-16.9-19.8l4.6-20.6l4,8.1
		c0.1,0,0.5,0.5,0.5,0.7c0.2,1.1,1.1,2,2,2.6L146,396c2,1.1,4.2-0.2,5.2-2.3C152.2,391.7,151.6,389.6,149.5,388.6L149.5,388.6z"/>
</g>
</svg>
