<svg xmlns="http://www.w3.org/2000/svg" xmlns:xlink="http://www.w3.org/1999/xlink" version="1.1" id="Layer_1" x="0px" y="0px" viewBox="0 0 48.828 48.828" enable-background="new 0 0 48.828 48.828" xml:space="preserve"><path fill="#CDAB2C" d="M45.74 31.867L31.867 45.74c-4.116 4.116-10.79 4.116-14.907 0L3.087 31.9 c-4.116-4.116-4.116-10.79 0-14.907L16.961 3.087c4.116-4.116 10.79-4.116 14.9 0L45.74 17 C49.857 21.1 49.9 27.8 45.7 31.867z"/><circle fill="#FFFFFF" cx="25.7" cy="15" r="2"/><path fill="#FFFFFF" d="M31.087 23.406l-2.829-1.251l-1.799-3.704c-0.047-0.127-0.106-0.248-0.176-0.362l-0.043-0.088 c-0.107-0.22-0.275-0.383-0.463-0.475c-0.216-0.164-0.467-0.285-0.746-0.346c-0.163-0.036-0.327-0.047-0.488-0.041 c-0.143-0.005-0.296 0.017-0.449 0.071c-0.247 0.07-0.48 0.188-0.687 0.347l-4.225 2.235c-0.076 0.04-0.144 0.087-0.208 0.1 c-0.207 0.111-0.365 0.308-0.412 0.557l-0.66 3.497c-0.083 0.4 0.2 0.9 0.6 0.942c0.437 0.1 0.859-0.206 0.941-0.643 l0.619-3.281l2.269-1.201l-0.999 4.534c-0.031 0.137-0.042 0.268-0.038 0.392l-0.757 4.727c-0.017 0.023-0.035 0.042-0.051 0.1 l-2.978 4.591c-0.373 0.574-0.3 1.3 0.2 1.581c0.461 0.3 1.1 0.1 1.509-0.498l2.979-4.591 c0.094-0.146 0.159-0.299 0.198-0.452c0.035-0.081 0.064-0.165 0.079-0.257l0.562-3.509c0.069 0 0.1 0 0.2 0.1 c0.235 0.1 0.4 0.1 0.6 0.216l3.108 3.711l0.961 4.581c0.122 0.6 0.7 1 1.2 0.8 c0.537-0.114 0.875-0.676 0.753-1.259l-0.976-4.652c-0.038-0.184-0.121-0.344-0.23-0.478c-0.037-0.064-0.079-0.126-0.129-0.185 l-3.241-3.87l0.885-4.012l0.77 1.584c0.023 0 0.1 0.1 0.1 0.134c0.052 0.2 0.2 0.4 0.4 0.499l2.992 1.3 c0.374 0.2 0.824-0.03 1.004-0.437C31.619 24 31.5 23.6 31.1 23.406z"/></svg>