<svg xmlns="http://www.w3.org/2000/svg" xmlns:xlink="http://www.w3.org/1999/xlink" version="1.1" id="Layer_1" x="0px" y="0px" viewBox="0 0 48.8 48.8" enable-background="new 0 0 48.8 48.8" xml:space="preserve"><g><path fill="#FFFFFF" d="M45.7 31.9L31.9 45.7c-4.1 4.1-10.8 4.1-14.9 0L3.1 31.9C-1 27.8-1 21.1 3.1 17L17 3.1 C21.1-1 27.8-1 31.9 3.1L45.7 17C49.9 21.1 49.9 27.8 45.7 31.9z"/><g><circle fill="#CDAB2C" cx="29.6" cy="16.6" r="2.2"/><path fill="#CDAB2C" d="M33.7 21.4c-0.2-0.5-0.8-0.7-1.2-0.5l-3.6 1.6l-0.5-3.1c0-0.2-0.1-0.4-0.3-0.5c-0.1-0.2-0.2-0.4-0.4-0.5 l-3.9-1.9c-0.2-0.1-0.5-0.1-0.7 0c-0.2 0.1-0.4 0.3-0.5 0.5l-1.3 3.7c-0.2 0.5 0.1 1 0.6 1.2c0.1 0 0.2 0.1 0.3 0.1 c0.4 0 0.7-0.2 0.9-0.6l1-2.7l1.4 0.7l-3 3.9c-0.1 0-0.1 0.1-0.1 0.1l-7 8.1c-0.3 0.4-0.3 1 0.1 1.3c0.2 0.2 0.4 0.2 0.6 0.2 c0.3 0 0.5-0.1 0.7-0.3l6-6.9l2.8 2.1l-4.3 2c-0.5 0.2-0.7 0.8-0.4 1.2c0.2 0.3 0.5 0.5 0.8 0.5c0.1 0 0.3 0 0.4-0.1l5.7-2.6 c0.3-0.1 0.5-0.4 0.5-0.7c0-0.3-0.1-0.6-0.4-0.8l-2.8-2l2.3-2.9l0.3 1.7c0 0.3 0.2 0.5 0.5 0.7c0.1 0.1 0.3 0.1 0.4 0.1 c0.1 0 0.3 0 0.4-0.1l4.7-2.1C33.7 22.4 33.9 21.9 33.7 21.4z"/></g></g></svg>