<svg xmlns="http://www.w3.org/2000/svg" xmlns:xlink="http://www.w3.org/1999/xlink" version="1.1" id="Layer_1" x="0px" y="0px" viewBox="0 0 48.8 48.8" enable-background="new 0 0 48.8 48.8" xml:space="preserve"><path fill="#333231" d="M45.7 31.9L31.9 45.7c-4.1 4.1-10.8 4.1-14.9 0L3.1 31.9C-1 27.8-1 21.1 3.1 17L17 3.1 C21.1-1 27.8-1 31.9 3.1L45.7 17C49.9 21.1 49.9 27.8 45.7 31.9z"/><path fill="#CDAB2C" d="M26.8 19.1c1 0.2 2-0.5 2.2-1.6c0.2-1-0.5-2-1.6-2.2c-1-0.2-2 0.5-2.2 1.6C25.1 17.9 25.8 18.9 26.8 19.1z"/><path fill="#CDAB2C" d="M29.9 24.3c-0.5-0.1-1.1-0.1-1.6 0l-0.6-1.5l0.8 0c0.4 0 0.8-0.4 0.8-0.8c0-0.4-0.3-0.8-0.8-0.8c0 0 0 0 0 0 l-2.6 0c0 0-0.9-2.5-1-2.7c-0.4-0.7-1.2-0.9-1.9-0.5l-4.5 2.5c-0.7 0.4-0.9 1.2-0.5 1.9c0.1 0.2 0.3 0.4 0.5 0.5 c0.2 0.2 0.4 0.3 0.7 0.3l2.8 1.3l-0.1 3.3c0 0.4 0.3 0.8 0.8 0.8c0 0 0 0 0 0c0.4 0 0.8-0.3 0.8-0.8l0.1-3.9c0-0.3-0.2-0.6-0.4-0.7 l-2.1-1l-0.1 0l3.2-1.8l0.1 0.2l0.5 1.4c0.1 0.3 0.4 0.5 0.7 0.5h0l1.2 0c0 0 0 0.1 0 0.1l0.7 1.7c-1.1 0.5-1.9 1.5-2.2 2.7 c-0.5 2.1 0.9 4.3 3 4.8c2.2 0.5 4.3-0.9 4.8-3C33.4 26.9 32 24.7 29.9 24.3z M31.9 28.8c-0.3 1.6-1.9 2.6-3.5 2.2 c-1.6-0.3-2.6-1.9-2.2-3.5c0.2-0.9 0.8-1.6 1.5-1.9l1 2.5c0.1 0.2 0.2 0.3 0.4 0.3c0.1 0 0.2 0 0.3 0c0.3-0.1 0.4-0.4 0.3-0.7 l-0.9-2.4c0.3 0 0.6 0 0.9 0.1C31.2 25.7 32.2 27.2 31.9 28.8z"/><path fill="#CDAB2C" d="M17 24.2c-2.2 0-4 1.8-4 4s1.8 4 4 4c2.2 0 4-1.8 4-4C21 26 19.2 24.2 17 24.2z M17 31.1 c-1.6 0-2.9-1.3-2.9-2.9c0-1.6 1.3-2.9 2.9-2.9c1.6 0 2.9 1.3 2.9 2.9C19.9 29.8 18.6 31.1 17 31.1z"/></svg>