<svg xmlns="http://www.w3.org/2000/svg" xmlns:xlink="http://www.w3.org/1999/xlink" version="1.1" id="Layer_1" x="0px" y="0px" viewBox="0 0 150.4 37.6" enable-background="new 0 0 150.4 37.6" xml:space="preserve"><g><path fill="#CDAB2C" d="M53.5 12.1h6.9c0.4 0 0.7 0.3 0.7 0.7v0.1c0 0.4-0.3 0.7-0.7 0.7h-6.2v4.5h5c0.4 0 0.7 0.3 0.7 0.7v0 c0 0.4-0.3 0.7-0.7 0.7h-5v5.1c0 0.4-0.3 0.7-0.7 0.7h-0.1c-0.4 0-0.7-0.3-0.7-1.3c0 0 0-10.7 0-11.2C52.6 12.4 53 12.1 53.5 12.1z "/><path fill="#CDAB2C" d="M65 12.1L65 12.1c0.5 0 0.8 0.4 0.8 0.8v11.7c0 0.4-0.4 0.8-0.8 0.8h0c-0.4 0-0.8-0.4-0.8-0.8V12.9 C64.2 12.5 64.5 12.1 65 12.1z"/><path fill="#CDAB2C" d="M69.3 12.1h8.3c0.4 0 0.8 0.3 0.8 0.8v0c0 0.4-0.3 0.8-0.8 0.8h-3.3v11c0 0.4-0.3 0.8-0.8 0.8h-0.1 c-0.4 0-0.8-0.3-0.8-0.8v-11h-3.4c-0.4 0-0.8-0.3-0.8-0.8v0C68.5 12.5 68.9 12.1 69.3 12.1z"/><path fill="#CDAB2C" d="M89.4 24.5c0 0.4-0.2 0.7-0.6 0.7c-0.8 0.1-2.1 0.3-3.2 0.3c-4.2 0-5.1-2.2-5.1-6.8c0-4.7 1-6.9 5.1-6.9 c1.2 0 2.5 0.2 3.2 0.3c0.4 0.1 0.6 0.4 0.6 0.7l0 0c0 0.4-0.4 0.7-0.8 0.7c-0.8-0.1-2-0.2-2.8-0.2c-3.1 0-3.7 1.5-3.7 5.4 c0 3.8 0.5 5.3 3.7 5.3c0.8 0 2-0.1 2.8-0.2C89 23.8 89.4 24.1 89.4 24.5L89.4 24.5z"/><path fill="#CDAB2C" d="M94.2 20.6v4c0 0.4-0.3 0.8-0.8 0.8h0c-0.4 0-0.8-0.3-0.8-0.8V12.1h5.1c2.5 0 4.6 0.9 4.6 3.9 c0 2.1-0.8 3.6-2.6 4.2l3.5 5.4c0.2 0.5-0.1 1.1-0.7 1.1h0c-0.3 0-0.6-0.2-0.7-0.5l-3.7-5.8L94.2 20.6z M97.7 13.6h-3.5v5.5h3.5 c2.1 0 2.9-1.4 2.9-3.1C100.6 14.2 99.6 13.6 97.7 13.6z"/><path fill="#CDAB2C" d="M105.5 18.8c0-4.9 1.5-6.9 5.6-6.9c4.1 0 5.5 2 5.5 6.9c0 5-1.4 6.7-5.5 6.7 C107 25.6 105.5 23.8 105.5 18.8z M115 18.8c0-4-1-5.4-3.9-5.4c-3 0-3.9 1.4-3.9 5.4c0 4 0.9 5.3 3.9 5.3 C114.1 24.1 115 23 115 18.8z"/><path fill="#CDAB2C" d="M120.8 12.8l2.5 11.7h0.6l2.5-11.3c0.1-0.5 0.6-0.9 1.1-0.9h0c0.5 0 1 0.4 1.1 0.9l2.6 11.3h0.6l2.4-11.7 c0.1-0.4 0.4-0.6 0.8-0.6h0c0.5 0 0.9 0.5 0.8 0.9l-2.4 11.3c-0.2 0.9-1 1.5-1.9 1.5h0c-0.8 0-1.5-0.6-1.7-1.4l-2.2-10.2l-2.2 10.2 c-0.2 0.8-0.8 1.3-1.6 1.3h0c-0.9 0-1.7-0.6-1.9-1.5l-2.5-11.3c-0.1-0.5 0.3-0.9 0.8-0.9h0C120.4 12.1 120.7 12.4 120.8 12.8z"/><path fill="#CDAB2C" d="M140.5 12.1L140.5 12.1c0.8 0 1.5 0.5 1.8 1.2l6.1 10.5h0.4V12.9c0-0.4 0.4-0.8 0.8-0.8h0 c0.4 0 0.8 0.4 0.8 0.8v10.6c0 1-0.8 1.8-1.8 1.8h0c-0.6 0-1.2-0.4-1.4-0.9L141 13.9c0-0.1-0.1-0.1-0.2-0.1h0 c-0.1 0-0.2 0.1-0.2 0.2v10.6c0 0.4-0.4 0.8-0.8 0.8h0c-0.4 0-0.8-0.4-0.8-0.8V13.7C138.9 12.9 139.7 12.1 140.5 12.1z"/></g><g><path fill="#CDAB2C" d="M19 0h-0.4C8.3 0 0 8.3 0 18.6V19c0 10.3 8.3 18.6 18.6 18.6H19c10.3 0 18.6-8.3 18.6-18.6v-0.4 C37.6 8.3 29.2 0 19 0z M35.7 19c0 9.2-7.5 16.8-16.8 16.8h-0.4C9.4 35.7 1.8 28.2 1.8 19v-0.4c0-9.2 7.5-16.8 16.8-16.8H19 c9.2 0 16.8 7.5 16.8 16.8V19z"/><path fill="#CDAB2C" d="M18.8 19.1c-0.5 0-0.9 0.4-0.9 0.9v2.9c0 0.5 0.4 0.9 0.9 0.9c0.5 0 0.9-0.4 0.9-0.9V20 C19.7 19.5 19.3 19.1 18.8 19.1z"/><path fill="#CDAB2C" d="M30.5 14.5c-0.2-0.6-0.9-0.8-1.4-0.5L24 17.3c-0.1 0-0.1 0-0.2 0l-3.9-3.1c-0.2-0.1-0.2-0.3-0.2-0.5v0 c0-0.4-0.3-0.8-0.7-0.9c-0.6-0.2-1.2 0.3-1.2 0.9v0c0 0.2-0.1 0.4-0.2 0.5l-3.9 3.1c-0.1 0-0.1 0.1-0.2 0L8.2 14 c-0.5-0.3-1.2-0.1-1.4 0.5c-0.1 0.4 0.1 0.9 0.4 1.1l0.8 0.5c0.1 0.1 0.2 0.2 0.2 0.4l0 6.4c0 0.4 0.3 0.8 0.7 0.9 c0.6 0.1 1.2-0.3 1.2-0.9c0 0 0-1.3 0-1.3c0-0.1 0.1-0.1 0.1-0.1c0.4 0.2 0.9 0.1 1.1-0.4c0.2-0.5 0.1-1-0.3-1.3l-0.8-0.5 c-0.1 0-0.1-0.1-0.1-0.2l0-1.5c0-0.1 0.1-0.2 0.2-0.1l2.9 1.8c0.2 0.1 0.3 0.1 0.5 0.1c0.2 0 0.4-0.1 0.6-0.3l4.2-3.3 c0.2-0.1 0.4-0.1 0.5 0l4 3.2c0.2 0.2 0.5 0.4 0.8 0.4c0.2 0 0.3 0 0.5-0.1l2.9-1.8c0.1-0.1 0.2 0 0.2 0.1l0 5.3 c0 0.4 0.3 0.8 0.7 0.9c0.6 0.2 1.2-0.3 1.2-0.9l0-6.5c0-0.1 0.1-0.3 0.2-0.4l0.7-0.4C30.5 15.4 30.7 14.9 30.5 14.5z"/></g></svg>